<svg enable-background="new 0 0 5 80" viewBox="0 0 5 80" xmlns="http://www.w3.org/2000/svg"><g fill="#fff"><path d="m1.9 15.2c1.6-.4 3.1 1 2.7 2.7-.2.8-.8 1.4-1.6 1.6-1.6.4-3.1-1.1-2.7-2.7.2-.7.9-1.4 1.6-1.6z"/><path d="m1.9 30.3c1.6-.4 3.1 1 2.7 2.7-.2.8-.8 1.4-1.6 1.6-1.6.4-3-1-2.6-2.7.1-.7.8-1.4 1.5-1.6z"/><path d="m1.9.1c1.6-.4 3.1 1 2.7 2.7-.1.8-.8 1.4-1.6 1.6-1.6.4-3-1.1-2.6-2.7.1-.8.8-1.4 1.5-1.6z"/><path d="m1.9 45.4c1.6-.4 3.1 1 2.7 2.7-.2.8-.8 1.4-1.6 1.6-1.6.4-3-1-2.6-2.7.1-.7.8-1.4 1.5-1.6z"/><path d="m1.9 60.5c1.6-.4 3.1 1 2.7 2.7-.1.8-.8 1.4-1.6 1.6-1.6.4-3.1-1.1-2.7-2.7.2-.7.9-1.4 1.6-1.6z"/><path d="m1.9 75.6c1.6-.4 3.1 1 2.7 2.7-.2.8-.8 1.4-1.6 1.6-1.6.4-3.1-1.1-2.7-2.7.2-.8.9-1.4 1.6-1.6z"/></g></svg>