<svg viewBox="0 0 31.81 31.81" xmlns="http://www.w3.org/2000/svg"><path d="m20.21 3.74a15.91 15.91 0 1 0 15.91 15.91 15.91 15.91 0 0 0 -15.91-15.91zm7.56 13c-.25.25-.53.46-.79.7a.25.25 0 0 0 -.08.18 10 10 0 0 1 -2.39 6.78 9 9 0 0 1 -4.15 2.86 10 10 0 0 1 -3.65.51 9.57 9.57 0 0 1 -3.71-.9c-.4-.19-.78-.42-1.17-.63a7.08 7.08 0 0 0 4.1-.81c.32-.18.62-.39.93-.6a3.55 3.55 0 0 1 -3.2-2.43 3.43 3.43 0 0 0 1.53-.06 3.44 3.44 0 0 1 -2.71-3.42 3.55 3.55 0 0 0 1.53.41 3.45 3.45 0 0 1 -1.06-4.59 9.87 9.87 0 0 0 7.11 3.6c0-.22-.05-.43-.06-.63a3.27 3.27 0 0 1 .6-2.11 3.35 3.35 0 0 1 2.66-1.49 3.27 3.27 0 0 1 2.54.89.35.35 0 0 0 .35.1 7.28 7.28 0 0 0 1.8-.69l.2-.1a3.6 3.6 0 0 1 -1.44 1.87 6.31 6.31 0 0 0 1.86-.49c-.24.37-.51.71-.8 1.01z" fill="#dde1e6" transform="translate(-4.3 -3.74)"/></svg>