<svg enable-background="new 0 0 40 40" viewBox="0 0 40 40" xmlns="http://www.w3.org/2000/svg" xmlns:xlink="http://www.w3.org/1999/xlink"><defs><clipPath><path d="m20.6 7419.3h-8.1c-.5 0-.9-.4-.9-.9v-15.1c0-.5.4-.9.9-.9h15.1c.5 0 .9.4.9.9v15.1c0 .5-.4.9-.9.9h-4.3v-6.6h2.2l.3-2.6h-2.5v-1.6c0-.7.2-1.2 1.3-1.2h1.4v-2.3c-.2 0-1-.1-2-.1-2 0-3.3 1.2-3.3 3.4v1.9h-2.2v2.6h2.2v6.5z"/></clipPath><clipPath id="a"><use xlink:href="#m"/></clipPath><clipPath id="b"><use xlink:href="#n"/></clipPath><clipPath><path d="m20.6 7419.3h-8.1c-.5 0-.9-.4-.9-.9v-15.1c0-.5.4-.9.9-.9h15.1c.5 0 .9.4.9.9v15.1c0 .5-.4.9-.9.9h-4.3v-6.6h2.2l.3-2.6h-2.5v-1.6c0-.7.2-1.2 1.3-1.2h1.4v-2.3c-.2 0-1-.1-2-.1-2 0-3.3 1.2-3.3 3.4v1.9h-2.2v2.6h2.2v6.5z"/></clipPath><clipPath><path d="m20 7402.3c-4.7 0-8.5 3.8-8.5 8.5 0 3.5 2.1 6.5 5.1 7.8 0-.6 0-1.3.1-2 .2-.7 1.1-4.6 1.1-4.6s-.3-.5-.3-1.3c0-1.3.7-2.2 1.6-2.2.8 0 1.1.6 1.1 1.3 0 .8-.5 1.9-.7 3-.2.9.5 1.6 1.3 1.6 1.6 0 2.7-2.1 2.7-4.5 0-1.9-1.3-3.3-3.5-3.3-2.6 0-4.2 1.9-4.2 4.1 0 .7.2 1.3.6 1.7.2.2.2.3.1.5 0 .2-.1.5-.2.7s-.2.3-.4.2c-1.2-.5-1.7-1.8-1.7-3.2 0-2.4 2-5.3 6.1-5.3 3.2 0 5.4 2.3 5.4 4.9 0 3.3-1.9 5.8-4.6 5.8-.9 0-1.8-.5-2.1-1.1 0 0-.5 2-.6 2.3-.2.7-.5 1.3-.9 1.8.8.2 1.6.3 2.4.3 4.7 0 8.5-3.8 8.5-8.5.1-4.7-3.7-8.5-8.4-8.5"/></clipPath><clipPath id="c"><use xlink:href="#o"/></clipPath><clipPath id="d"><use xlink:href="#p"/></clipPath><clipPath><path d="m20 7402.3c-4.7 0-8.5 3.8-8.5 8.5 0 3.5 2.1 6.5 5.1 7.8 0-.6 0-1.3.1-2 .2-.7 1.1-4.6 1.1-4.6s-.3-.5-.3-1.3c0-1.3.7-2.2 1.6-2.2.8 0 1.1.6 1.1 1.3 0 .8-.5 1.9-.7 3-.2.9.5 1.6 1.3 1.6 1.6 0 2.7-2.1 2.7-4.5 0-1.9-1.3-3.3-3.5-3.3-2.6 0-4.2 1.9-4.2 4.1 0 .7.2 1.3.6 1.7.2.2.2.3.1.5 0 .2-.1.5-.2.7s-.2.3-.4.2c-1.2-.5-1.7-1.8-1.7-3.2 0-2.4 2-5.3 6.1-5.3 3.2 0 5.4 2.3 5.4 4.9 0 3.3-1.9 5.8-4.6 5.8-.9 0-1.8-.5-2.1-1.1 0 0-.5 2-.6 2.3-.2.7-.5 1.3-.9 1.8.8.2 1.6.3 2.4.3 4.7 0 8.5-3.8 8.5-8.5.1-4.7-3.7-8.5-8.4-8.5"/></clipPath><clipPath><path d="m20-108.7c-4.7 0-8.5 3.8-8.5 8.5 0 3.5 2.1 6.5 5.1 7.8 0-.6 0-1.3.1-2 .2-.7 1.1-4.6 1.1-4.6s-.3-.5-.3-1.3c0-1.3.7-2.2 1.6-2.2.8 0 1.1.6 1.1 1.3 0 .8-.5 1.9-.7 3-.2.9.5 1.6 1.3 1.6 1.6 0 2.7-2.1 2.7-4.5 0-1.9-1.3-3.3-3.5-3.3-2.6 0-4.2 1.9-4.2 4.1 0 .7.2 1.3.6 1.7.2.2.2.3.1.5 0 .2-.1.5-.2.7s-.2.3-.4.2c-1.2-.5-1.7-1.8-1.7-3.2 0-2.4 2-5.3 6.1-5.3 3.2 0 5.4 2.3 5.4 4.9 0 3.3-1.9 5.8-4.6 5.8-.9 0-1.8-.5-2.1-1.1 0 0-.5 2-.6 2.3-.2.7-.5 1.3-.9 1.8.8.2 1.6.3 2.4.3 4.7 0 8.5-3.8 8.5-8.5.1-4.7-3.7-8.5-8.4-8.5"/></clipPath><clipPath id="e"><use xlink:href="#q"/></clipPath><clipPath id="f"><use xlink:href="#r"/></clipPath><clipPath><path d="m20-108.7c-4.7 0-8.5 3.8-8.5 8.5 0 3.5 2.1 6.5 5.1 7.8 0-.6 0-1.3.1-2 .2-.7 1.1-4.6 1.1-4.6s-.3-.5-.3-1.3c0-1.3.7-2.2 1.6-2.2.8 0 1.1.6 1.1 1.3 0 .8-.5 1.9-.7 3-.2.9.5 1.6 1.3 1.6 1.6 0 2.7-2.1 2.7-4.5 0-1.9-1.3-3.3-3.5-3.3-2.6 0-4.2 1.9-4.2 4.1 0 .7.2 1.3.6 1.7.2.2.2.3.1.5 0 .2-.1.5-.2.7s-.2.3-.4.2c-1.2-.5-1.7-1.8-1.7-3.2 0-2.4 2-5.3 6.1-5.3 3.2 0 5.4 2.3 5.4 4.9 0 3.3-1.9 5.8-4.6 5.8-.9 0-1.8-.5-2.1-1.1 0 0-.5 2-.6 2.3-.2.7-.5 1.3-.9 1.8.8.2 1.6.3 2.4.3 4.7 0 8.5-3.8 8.5-8.5.1-4.7-3.7-8.5-8.4-8.5"/></clipPath><clipPath><path d="m20.6-127.7h-8.1c-.5 0-.9-.4-.9-.9v-15.1c0-.5.4-.9.9-.9h15.1c.5 0 .9.4.9.9v15.1c0 .5-.4.9-.9.9h-4.3v-6.6h2.2l.3-2.6h-2.5v-1.6c0-.7.2-1.2 1.3-1.2h1.4v-2.3c-.2 0-1-.1-2-.1-2 0-3.3 1.2-3.3 3.4v1.9h-2.2v2.6h2.2v6.5z"/></clipPath><clipPath id="g"><use xlink:href="#s"/></clipPath><clipPath id="h"><use xlink:href="#t"/></clipPath><clipPath><path d="m20.6-127.7h-8.1c-.5 0-.9-.4-.9-.9v-15.1c0-.5.4-.9.9-.9h15.1c.5 0 .9.4.9.9v15.1c0 .5-.4.9-.9.9h-4.3v-6.6h2.2l.3-2.6h-2.5v-1.6c0-.7.2-1.2 1.3-1.2h1.4v-2.3c-.2 0-1-.1-2-.1-2 0-3.3 1.2-3.3 3.4v1.9h-2.2v2.6h2.2v6.5z"/></clipPath><clipPath><path d="m20.6-127.7h-8.1c-.5 0-.9-.4-.9-.9v-15.1c0-.5.4-.9.9-.9h15.1c.5 0 .9.4.9.9v15.1c0 .5-.4.9-.9.9h-4.3v-6.6h2.2l.3-2.6h-2.5v-1.6c0-.7.2-1.2 1.3-1.2h1.4v-2.3c-.2 0-1-.1-2-.1-2 0-3.3 1.2-3.3 3.4v1.9h-2.2v2.6h2.2v6.5z"/></clipPath><clipPath id="i"><use xlink:href="#u"/></clipPath><clipPath id="j"><use xlink:href="#v"/></clipPath><clipPath><path d="m20.6-127.7h-8.1c-.5 0-.9-.4-.9-.9v-15.1c0-.5.4-.9.9-.9h15.1c.5 0 .9.4.9.9v15.1c0 .5-.4.9-.9.9h-4.3v-6.6h2.2l.3-2.6h-2.5v-1.6c0-.7.2-1.2 1.3-1.2h1.4v-2.3c-.2 0-1-.1-2-.1-2 0-3.3 1.2-3.3 3.4v1.9h-2.2v2.6h2.2v6.5z"/></clipPath><clipPath><path d="m20.6-119.7h-8.1c-.5 0-.9-.4-.9-.9v-15.1c0-.5.4-.9.9-.9h15.1c.5 0 .9.4.9.9v15.1c0 .5-.4.9-.9.9h-4.3v-6.6h2.2l.3-2.6h-2.5v-1.6c0-.7.2-1.2 1.3-1.2h1.4v-2.3c-.2 0-1-.1-2-.1-2 0-3.3 1.2-3.3 3.4v1.9h-2.2v2.6h2.2v6.5z"/></clipPath><clipPath id="k"><use xlink:href="#w"/></clipPath><clipPath id="l"><use xlink:href="#x"/></clipPath><clipPath><path d="m20.6-119.7h-8.1c-.5 0-.9-.4-.9-.9v-15.1c0-.5.4-.9.9-.9h15.1c.5 0 .9.4.9.9v15.1c0 .5-.4.9-.9.9h-4.3v-6.6h2.2l.3-2.6h-2.5v-1.6c0-.7.2-1.2 1.3-1.2h1.4v-2.3c-.2 0-1-.1-2-.1-2 0-3.3 1.2-3.3 3.4v1.9h-2.2v2.6h2.2v6.5z"/></clipPath><path id="m" d="m20.6 7419.3h-8.1c-.5 0-.9-.4-.9-.9v-15.1c0-.5.4-.9.9-.9h15.1c.5 0 .9.4.9.9v15.1c0 .5-.4.9-.9.9h-4.3v-6.6h2.2l.3-2.6h-2.5v-1.6c0-.7.2-1.2 1.3-1.2h1.4v-2.3c-.2 0-1-.1-2-.1-2 0-3.3 1.2-3.3 3.4v1.9h-2.2v2.6h2.2v6.5z"/><path id="n" d="m-59.3 7345.7h370.8v442.6h-370.8z"/><path id="o" d="m20 7402.3c-4.7 0-8.5 3.8-8.5 8.5 0 3.5 2.1 6.5 5.1 7.8 0-.6 0-1.3.1-2 .2-.7 1.1-4.6 1.1-4.6s-.3-.5-.3-1.3c0-1.3.7-2.2 1.6-2.2.8 0 1.1.6 1.1 1.3 0 .8-.5 1.9-.7 3-.2.9.5 1.6 1.3 1.6 1.6 0 2.7-2.1 2.7-4.5 0-1.9-1.3-3.3-3.5-3.3-2.6 0-4.2 1.9-4.2 4.1 0 .7.2 1.3.6 1.7.2.2.2.3.1.5 0 .2-.1.5-.2.7s-.2.3-.4.2c-1.2-.5-1.7-1.8-1.7-3.2 0-2.4 2-5.3 6.1-5.3 3.2 0 5.4 2.3 5.4 4.9 0 3.3-1.9 5.8-4.6 5.8-.9 0-1.8-.5-2.1-1.1 0 0-.5 2-.6 2.3-.2.7-.5 1.3-.9 1.8.8.2 1.6.3 2.4.3 4.7 0 8.5-3.8 8.5-8.5.1-4.7-3.7-8.5-8.4-8.5"/><path id="p" d="m-94.6 7310.3h370.8v442.6h-370.8z"/><path id="q" d="m20-108.7c-4.7 0-8.5 3.8-8.5 8.5 0 3.5 2.1 6.5 5.1 7.8 0-.6 0-1.3.1-2 .2-.7 1.1-4.6 1.1-4.6s-.3-.5-.3-1.3c0-1.3.7-2.2 1.6-2.2.8 0 1.1.6 1.1 1.3 0 .8-.5 1.9-.7 3-.2.9.5 1.6 1.3 1.6 1.6 0 2.7-2.1 2.7-4.5 0-1.9-1.3-3.3-3.5-3.3-2.6 0-4.2 1.9-4.2 4.1 0 .7.2 1.3.6 1.7.2.2.2.3.1.5 0 .2-.1.5-.2.7s-.2.3-.4.2c-1.2-.5-1.7-1.8-1.7-3.2 0-2.4 2-5.3 6.1-5.3 3.2 0 5.4 2.3 5.4 4.9 0 3.3-1.9 5.8-4.6 5.8-.9 0-1.8-.5-2.1-1.1 0 0-.5 2-.6 2.3-.2.7-.5 1.3-.9 1.8.8.2 1.6.3 2.4.3 4.7 0 8.5-3.8 8.5-8.5.1-4.7-3.7-8.5-8.4-8.5"/><path id="r" d="m-94.6-200.7h370.8v442.6h-370.8z"/><path id="s" d="m20.6-127.7h-8.1c-.5 0-.9-.4-.9-.9v-15.1c0-.5.4-.9.9-.9h15.1c.5 0 .9.4.9.9v15.1c0 .5-.4.9-.9.9h-4.3v-6.6h2.2l.3-2.6h-2.5v-1.6c0-.7.2-1.2 1.3-1.2h1.4v-2.3c-.2 0-1-.1-2-.1-2 0-3.3 1.2-3.3 3.4v1.9h-2.2v2.6h2.2v6.5z"/><path id="t" d="m-59.3-201.3h370.8v442.6h-370.8z"/><path id="u" d="m20.6-127.7h-8.1c-.5 0-.9-.4-.9-.9v-15.1c0-.5.4-.9.9-.9h15.1c.5 0 .9.4.9.9v15.1c0 .5-.4.9-.9.9h-4.3v-6.6h2.2l.3-2.6h-2.5v-1.6c0-.7.2-1.2 1.3-1.2h1.4v-2.3c-.2 0-1-.1-2-.1-2 0-3.3 1.2-3.3 3.4v1.9h-2.2v2.6h2.2v6.5z"/><path id="v" d="m-59.3-201.3h370.8v442.6h-370.8z"/><path id="w" d="m20.6-119.7h-8.1c-.5 0-.9-.4-.9-.9v-15.1c0-.5.4-.9.9-.9h15.1c.5 0 .9.4.9.9v15.1c0 .5-.4.9-.9.9h-4.3v-6.6h2.2l.3-2.6h-2.5v-1.6c0-.7.2-1.2 1.3-1.2h1.4v-2.3c-.2 0-1-.1-2-.1-2 0-3.3 1.2-3.3 3.4v1.9h-2.2v2.6h2.2v6.5z"/><path id="x" d="m-59.3-193.3h370.8v442.6h-370.8z"/></defs><path d="m-109.8-29.1h82.4v99.4h-82.4z" fill="#594a42" stroke="#000" stroke-miterlimit="10"/><g fill="#c0c0c0"><use clip-rule="evenodd" fill-rule="evenodd" xlink:href="#m"/><g clip-path="url(#a)"><use xlink:href="#n"/><path clip-path="url(#b)" d="m9.7 7400.5h20.5v20.5h-20.5z"/></g><use clip-rule="evenodd" fill-rule="evenodd" xlink:href="#o"/><g clip-path="url(#c)"><use xlink:href="#p"/><path clip-path="url(#d)" d="m9.7 7400.5h20.5v20.5h-20.5z"/></g><use clip-rule="evenodd" fill-rule="evenodd" xlink:href="#q"/><g clip-path="url(#e)"><use xlink:href="#r"/><path clip-path="url(#f)" d="m9.7-110.5h20.5v20.5h-20.5z"/></g><use clip-rule="evenodd" fill-rule="evenodd" xlink:href="#s"/><g clip-path="url(#g)"><use xlink:href="#t"/><path clip-path="url(#h)" d="m9.7-146.5h20.5v20.5h-20.5z"/></g><use clip-rule="evenodd" fill-rule="evenodd" xlink:href="#u"/><g clip-path="url(#i)"><use xlink:href="#v"/><path clip-path="url(#j)" d="m9.7-146.5h20.5v20.5h-20.5z"/></g><path clip-rule="evenodd" d="m25.6 15.5c0 .6-.5 1-1 1-.6 0-1-.5-1-1 0-.6.5-1 1-1 .5-.1 1 .4 1 1zm-5.6 7.3c1.6 0 2.8-1.3 2.8-2.8 0-1.6-1.3-2.8-2.8-2.8-1.6 0-2.8 1.3-2.8 2.8 0 1.6 1.2 2.8 2.8 2.8zm0-7.2c2.4 0 4.4 2 4.4 4.4s-2 4.4-4.4 4.4-4.4-2-4.4-4.4 2-4.4 4.4-4.4zm0-2.6c-2.3 0-2.5 0-3.4 0-.8 0-1.3.2-1.6.3-.4.2-.7.3-1 .6s-.5.6-.6 1c-.1.3-.3.7-.3 1.6v3.4 3.4c0 .8.2 1.3.3 1.6.2.4.3.7.6 1s.6.5 1 .6c.3.1.7.3 1.6.3h3.4 3.4c.8 0 1.3-.2 1.6-.3.4-.2.7-.3 1-.6s.5-.6.6-1c.1-.3.3-.7.3-1.6s0-1.2 0-3.4c0-2.3 0-2.5 0-3.4 0-.8-.2-1.3-.3-1.6-.2-.4-.3-.7-.6-1s-.6-.5-1-.6c-.3-.1-.7-.3-1.6-.3s-1.1 0-3.4 0zm0-1.5c2.3 0 2.6 0 3.5.1.9 0 1.5.2 2.1.4s1 .5 1.5 1 .8.9 1 1.5c.2.5.4 1.2.4 2.1s.1 1.2.1 3.5 0 2.6-.1 3.5c0 .9-.2 1.5-.4 2.1s-.5 1-1 1.5-.9.8-1.5 1c-.5.2-1.2.4-2.1.4s-1.2.1-3.5.1-2.6 0-3.5-.1c-.9 0-1.5-.2-2.1-.4s-1-.5-1.5-1-.8-.9-1-1.5c-.2-.5-.4-1.2-.4-2.1s-.1-1.2-.1-3.5 0-2.6.1-3.5c0-.9.2-1.5.4-2.1s.5-1 1-1.5.9-.8 1.5-1c.5-.2 1.2-.4 2.1-.4.9-.1 1.2-.1 3.5-.1z" fill-rule="evenodd"/><path clip-rule="evenodd" d="m66.4-14.9v2.9h4c-.6 1.9-1.6 2.9-4 2.9s-4.3-2-4.3-4.4 1.9-4.4 4.3-4.4c1.3 0 2.1.5 2.9 1.1.6-.6.6-.7 2.1-2.2-1.3-1.2-3.1-1.9-5-1.9-4.1 0-7.4 3.3-7.4 7.4s3.3 7.4 7.4 7.4c6.1 0 7.6-5.3 7.1-8.9h-7.1zm13.3.1v-2.6h-1.8v2.6h-2.6v1.8h2.6v2.6h1.8v-2.6h2.6v-1.8z" fill-rule="evenodd"/><use clip-rule="evenodd" fill-rule="evenodd" xlink:href="#w"/><g clip-path="url(#k)"><use xlink:href="#x"/><path clip-path="url(#l)" d="m9.7-138.5h20.5v20.5h-20.5z"/></g><path clip-rule="evenodd" d="m71.2-21.5h-8.1c-.5 0-.9-.4-.9-.9v-15.1c0-.5.4-.9.9-.9h15.1c.5 0 .9.4.9.9v15.1c0 .5-.4.9-.9.9h-4.3v-6.6h2.2l.3-2.6h-2.5v-1.6c0-.7.2-1.2 1.3-1.2h1.4v-2.3c-.2 0-1-.1-2-.1-2 0-3.3 1.2-3.3 3.4v1.9h-2.3v2.6h2.2z" fill-rule="evenodd"/><path clip-rule="evenodd" d="m70.6-1.5c-4.7 0-8.5 3.8-8.5 8.5 0 3.5 2.1 6.5 5.1 7.8 0-.6 0-1.3.1-2 .2-.7 1.1-4.6 1.1-4.6s-.3-.5-.3-1.3c0-1.3.7-2.2 1.6-2.2s1.3.6 1.3 1.3c0 .8-.5 1.9-.7 3-.2.9.5 1.6 1.3 1.6 1.6 0 2.7-2.1 2.7-4.5 0-1.9-1.3-3.3-3.5-3.3-2.6 0-4.2 1.9-4.2 4.1 0 .7.2 1.3.6 1.7.2.2.2.3.1.5 0 .2-.1.5-.2.7-.1.1-.3.2-.5.1-1.2-.5-1.7-1.8-1.7-3.2 0-2.4 2-5.3 6.1-5.3 3.2 0 5.4 2.3 5.4 4.9 0 3.3-1.9 5.8-4.6 5.8-.9 0-1.8-.5-2.1-1.1 0 0-.5 2-.6 2.3-.2.7-.5 1.3-.9 1.8.8.2 1.6.3 2.4.3 4.7 0 8.5-3.8 8.5-8.5 0-4.6-3.8-8.4-8.5-8.4" fill-rule="evenodd"/></g></svg>