<svg viewBox="0 0 31.81 31.81" xmlns="http://www.w3.org/2000/svg"><path d="m20.8 3.74a15.91 15.91 0 1 0 15.91 15.91 15.9 15.9 0 0 0 -15.91-15.91zm-3.8 17.75v4.51c0 .07 0 .07-.08.07h-2.92c-.07 0-.07 0-.07-.07v-9c0-.07 0-.07.07-.07h2.88c.08 0 .08 0 .08.08zm-1.51-5.74a1.61 1.61 0 1 1 1.71-1.61 1.66 1.66 0 0 1 -1.75 1.61zm12.37 10.25c0 .11 0 .09-.09.09h-2.87c-.07 0-.07 0-.07-.07v-4.94a2.83 2.83 0 0 0 -.19-1.08 1.32 1.32 0 0 0 -.71-.77 1.72 1.72 0 0 0 -.78-.11 1.54 1.54 0 0 0 -.89.37 1.74 1.74 0 0 0 -.55.88 1.34 1.34 0 0 0 -.05.35v2.13 3.15c0 .07 0 .07-.07.07h-2.9c-.07 0-.07 0-.07-.07 0-.51 0-1 0-1.55 0-1 0-2.08 0-3.12v-2.5c0-.52 0-1 0-1.57v-.32h3c.06 0 .07 0 .07.07v1.13.07c.09-.13.17-.25.26-.36a2.85 2.85 0 0 1 1.76-1.06 3.63 3.63 0 0 1 .93-.05 3.72 3.72 0 0 1 1.16.26 3.06 3.06 0 0 1 1.58 1.49 4.65 4.65 0 0 1 .4 1.28 7.5 7.5 0 0 1 .08 1.17z" fill="#dde1e6" transform="translate(-4.9 -3.74)"/></svg>