<svg viewBox="0 0 226.24 56.17" xmlns="http://www.w3.org/2000/svg"><path d="m121.5 11.9a9.89 9.89 0 0 1 9.6 10.1c0 5.55-4.25 10.18-9.6 10.18s-9.6-4.63-9.6-10.18a9.89 9.89 0 0 1 9.6-10.1zm0 17.13c3.52 0 6.27-3.14 6.27-7s-2.75-6.89-6.27-6.89-6.27 3.08-6.27 6.89 2.77 6.97 6.27 6.97z" fill="#808192" transform="translate(-7.66 -1.71)"/><path d="m132.09 13.22c-.29-.63 0-1.11.72-1.11h1.64a1 1 0 0 1 .87.53l5.84 13.25h.05l6.23-13.25a.91.91 0 0 1 .82-.53h1.39c.72 0 1 .48.72 1.11l-8.24 18.19a.86.86 0 0 1 -.82.48h-.25a.86.86 0 0 1 -.82-.48z" fill="#808192" transform="translate(-7.66 -1.71)"/><path d="m203.66 11.9a9.89 9.89 0 0 1 9.6 10.1c0 5.55-4.25 10.18-9.6 10.18s-9.6-4.63-9.6-10.18a9.89 9.89 0 0 1 9.6-10.1zm0 17.13c3.52 0 6.27-3.14 6.27-7s-2.75-6.89-6.27-6.89-6.27 3.08-6.27 6.89 2.75 6.97 6.27 6.97z" fill="#808192" transform="translate(-7.66 -1.71)"/><path d="m32.91 3.74a2.05 2.05 0 1 0 2.09 2.07 2 2 0 0 0 -2.09-2.07z" fill="#1896d8" transform="translate(-7.66 -1.71)"/><rect fill="#1896d8" height="19.27" rx=".83" width="3.17" x="23.73" y="10.7"/><path d="m48.17 11.92a9.85 9.85 0 0 0 -9.59 10.08c0 5.61 4.3 10.17 9.59 10.17s9.59-4.56 9.59-10.17a9.85 9.85 0 0 0 -9.59-10.08zm0 17.28c-3.6 0-6.42-3.17-6.42-7.2s2.82-7.06 6.42-7.06 6.42 3.06 6.42 7.06-2.82 7.2-6.42 7.2z" fill="#1896d8" transform="translate(-7.66 -1.71)"/><path d="m18 12.17a9 9 0 0 0 -6.17 2.4l-.16.15v-12.18a.86.86 0 0 0 -.83-.83h-1.48a.86.86 0 0 0 -.83.83v28.46a.87.87 0 0 0 .83.83h1.51a.79.79 0 0 0 .73-.7l.25-1.13a9.11 9.11 0 0 0 6.15 2.41 9.94 9.94 0 0 0 9.68-10.17 9.89 9.89 0 0 0 -9.68-10.07zm0 17.27c-3.63 0-6.48-3.16-6.48-7.2s2.85-7 6.48-7 6.48 3.1 6.48 7-2.82 7.2-6.48 7.2z" fill="#1896d8" transform="translate(-7.66 -1.71)"/><g fill="#808192"><path d="m170 12h-1.51a.86.86 0 0 0 -.83.83v1.72l-.16-.14a9 9 0 0 0 -6.13-2.41 9.89 9.89 0 0 0 -9.67 10.1 10 10 0 0 0 9.67 10.18 9.12 9.12 0 0 0 6.18-2.45l.25 1.11a.8.8 0 0 0 .73.7h1.47a.85.85 0 0 0 .83-.83v-17.95a.85.85 0 0 0 -.83-.86zm-8.63 17.3c-3.63 0-6.48-3.16-6.48-7.2s2.85-7 6.48-7 6.48 3.1 6.48 7.05-2.85 7.15-6.48 7.15z" transform="translate(-7.66 -1.71)"/><path d="m63.33 3.74a2.05 2.05 0 1 0 2.07 2.07 2 2 0 0 0 -2.07-2.07z" transform="translate(-7.66 -1.71)"/><rect height="19.27" rx=".83" width="3.17" x="54.16" y="10.7"/><path d="m188.78 3.74a2.05 2.05 0 1 0 2.07 2.07 2 2 0 0 0 -2.07-2.07z" transform="translate(-7.66 -1.71)"/><rect height="19.27" rx=".83" width="3.17" x="179.6" y="10.7"/><rect height="19.27" rx=".83" width="3.17" x="61.82" y="10.23"/><path d="m78.13 11.9a8.26 8.26 0 0 0 -8.64 8.64v10 .25a.94.94 0 0 0 .92.92h1.5a.94.94 0 0 0 .91-.92v-.25-10.12a5.29 5.29 0 1 1 10.57 0v10.09.25a.94.94 0 0 0 .91.92h1.51a.94.94 0 0 0 .91-.92v-10.22a8.25 8.25 0 0 0 -8.59-8.64z" transform="translate(-7.66 -1.71)"/><path d="m178.58 15.78h4a.92.92 0 0 0 .91-.92v-1.06a.89.89 0 0 0 -.91-.92h-4v-5.45a.91.91 0 0 0 -.87-.91l-1.54.09a1 1 0 0 0 -.92.92v16.81c0 4.95 3 7.71 7.44 7.42a.5.5 0 0 0 .52-.47v-2.12s.05-.5-.57-.5c-2.26 0-4.1-1-4.1-4.33z" transform="translate(-7.66 -1.71)"/><rect height="19.27" rx=".83" width="3.17" x="83.51" y="10.23"/><path d="m99.82 11.9a8.27 8.27 0 0 0 -8.65 8.64v10 .25a.94.94 0 0 0 .91.92h1.5a.94.94 0 0 0 .92-.92v-.25-10.12a5.29 5.29 0 1 1 10.57 0v10.09.25a.94.94 0 0 0 .91.92h1.5a.94.94 0 0 0 .92-.92v-10.22a8.25 8.25 0 0 0 -8.58-8.64z" transform="translate(-7.66 -1.71)"/><rect height="19.27" rx=".83" width="3.17" x="209" y="10.23"/><path d="m225.3 11.9a8.26 8.26 0 0 0 -8.64 8.64v10 .25a.94.94 0 0 0 .92.92h1.5a.94.94 0 0 0 .91-.92v-.25-10.12a5.29 5.29 0 1 1 10.58 0v10.09.25a.94.94 0 0 0 .92.92h1.51a.94.94 0 0 0 .91-.92v-10.22a8.24 8.24 0 0 0 -8.61-8.64z" transform="translate(-7.66 -1.71)"/></g><path d="m14.35 44.54a6.26 6.26 0 0 1 4.48 1.72.34.34 0 0 1 0 .52l-1.13 1.16a.29.29 0 0 1 -.46 0 4.43 4.43 0 0 0 -2.86-1.09 4.3 4.3 0 0 0 0 8.6 4.47 4.47 0 0 0 2.84-1.06.34.34 0 0 1 .46 0l1.15 1.19a.35.35 0 0 1 0 .5 6.36 6.36 0 0 1 -4.5 1.79 6.67 6.67 0 1 1 0-13.33z" fill="#737781" transform="translate(-7.66 -1.71)"/><path d="m21 57.21 5.76-12.47a.33.33 0 0 1 .31-.2h.19a.31.31 0 0 1 .31.2l5.71 12.47a.33.33 0 0 1 -.32.48h-1.63a.53.53 0 0 1 -.54-.37l-.9-2h-5.54l-.91 2a.56.56 0 0 1 -.54.37h-1.61a.32.32 0 0 1 -.29-.48zm8-4-1.85-4.07h-.06l-1.81 4.07z" fill="#737781" transform="translate(-7.66 -1.71)"/><path d="m36.33 45.07a.35.35 0 0 1 .35-.35h4.32a4.13 4.13 0 1 1 0 8.26h-2.26v4.36a.37.37 0 0 1 -.35.35h-1.71a.35.35 0 0 1 -.35-.35zm4.56 5.65a1.9 1.9 0 0 0 1.9-1.92 1.85 1.85 0 0 0 -1.9-1.8h-2.15v3.72z" fill="#737781" transform="translate(-7.66 -1.71)"/><path d="m48.68 45.07a.37.37 0 0 1 .35-.35h1.73a.37.37 0 0 1 .35.35v12.27a.37.37 0 0 1 -.35.35h-1.76a.37.37 0 0 1 -.35-.35z" fill="#737781" transform="translate(-7.66 -1.71)"/><path d="m57.61 46.94h-2.84a.35.35 0 0 1 -.35-.35v-1.52a.35.35 0 0 1 .35-.35h8.1a.35.35 0 0 1 .35.35v1.52a.35.35 0 0 1 -.35.35h-2.87v10.4a.36.36 0 0 1 -.35.35h-1.65a.37.37 0 0 1 -.35-.35z" fill="#737781" transform="translate(-7.66 -1.71)"/><path d="m64.14 57.21 5.76-12.47a.34.34 0 0 1 .32-.2h.18a.32.32 0 0 1 .32.2l5.71 12.47a.33.33 0 0 1 -.32.48h-1.61a.53.53 0 0 1 -.54-.37l-.91-2h-5.53l-.91 2a.57.57 0 0 1 -.54.37h-1.61a.33.33 0 0 1 -.32-.48zm8-4-1.86-4.07h-.05l-1.82 4.07z" fill="#737781" transform="translate(-7.66 -1.71)"/><path d="m79.5 45.07a.35.35 0 0 1 .35-.35h1.7a.36.36 0 0 1 .35.35v10.4h4.73a.35.35 0 0 1 .35.35v1.52a.35.35 0 0 1 -.35.35h-6.78a.35.35 0 0 1 -.35-.35z" fill="#737781" transform="translate(-7.66 -1.71)"/></svg>